# xmcd CD database file
#
# Track frame offsets:
#	150
#	17520
#	36257
#	52260
#	71837
#	94887
#	111360
#	129620
#	141712
#	160957
#	182960
#	202560
#	221497
#	234310
#	248337
#	263467
#
# Disc length: 3860 seconds
#
# Revision: 0
# Processed by: cddbd v1.5.1PL0 Copyright (c) Steve Scherf et al.
# Submitted via: CDex 1.60beta1
#
DISCID=e60f1210
DTITLE=Jonathon Lee - Solo II
DYEAR=1900
DGENRE=New Age
TTITLE0=Sad Lisa
TTITLE1=Chariots of Fire
TTITLE2=Can You Read My Mind
TTITLE3=Misty
TTITLE4=Summer Time
TTITLE5=Lady
TTITLE6=Pavane
TTITLE7=Tammy
TTITLE8=The Rose
TTITLE9=Hello
TTITLE10=Nadia's Theme
TTITLE11=Time in a Bottle
TTITLE12=The Home Coming
TTITLE13=Let it be Me
TTITLE14=Traces of Love
TTITLE15=Shadows
EXTD=
EXTT0=
EXTT1=
EXTT2=
EXTT3=
EXTT4=
EXTT5=
EXTT6=
EXTT7=
EXTT8=
EXTT9=
EXTT10=
EXTT11=
EXTT12=
EXTT13=
EXTT14=
EXTT15=
PLAYORDER=
